<svg height="200" viewBox="0 0 340 200" width="340" xmlns="http://www.w3.org/2000/svg"><g fill="none" fill-rule="evenodd"><path d="m0 0h340v200h-340z" fill="#1b1b2a"/><g transform="translate(20 39)"><circle cx="61" cy="61" fill="#05f" r="61"/><circle cx="61" cy="61" fill="#ff5550" r="61"/><path d="m61.2663755 61v-61c-33.9557452 0-61.2663755 27.3106303-61.2663755 61.2663755 0 0 27.3106303-.2663755 61.2663755-.2663755z" fill="#000111"/><path d="m61.2663755 61v-61c-33.9557452 0-61.2663755 27.3106303-61.2663755 61.2663755 0 0 27.3106303-.2663755 61.2663755-.2663755z" fill="#ff5550" fill-opacity=".7"/><path d="m61.2663755 61v-61c-16.9842587 0-32.3059887 6.8327949-43.3790846 17.9122792z" fill="#11111e"/><path d="m61.2663755 61v-61c-16.9842587 0-32.3059887 6.8327949-43.3790846 17.9122792z" fill="#ff5550" fill-opacity=".5"/><path d="m61.2663755 61v-61c-5.5451077 0-10.9130023.72832492-16.013685 2.09497602z" fill="#11111e"/><path d="m61.2663755 61v-61c-5.5451077 0-10.9130023.72832492-16.013685 2.09497602z" fill="#ff5550" fill-opacity=".3"/><path d="m61.2663755 122c33.4229942 0 60.7336245-27.3106303 60.7336245-60.7336245 0-33.9557452-27.3106303-61.2663755-60.7336245-61.2663755v61.2663755z" fill="#05f"/><circle cx="61" cy="61" fill="#1b1b2a" r="38.407407"/></g><g transform="translate(159 19)"><circle cx="81" cy="81" fill="#05f" r="81"/><path d="m81.3537118 81v-81c-45.0887765 0-81.3537118 36.2649353-81.3537118 81.3537118 0 0 36.2649353-.3537118 81.3537118-.3537118z" fill="#05f"/><path d="m81.3537118 81v-81c-45.0887765 0-81.3537118 36.2649353-81.3537118 81.3537118 0 0 36.2649353-.3537118 81.3537118-.3537118z" fill="#000111" fill-opacity=".3"/><path d="m81.3537118 81v-81c-10.6532157 0-20.8138451 2.02447045-30.1199471 5.71146998-10.3949251 4.11838216-19.7236638 10.31108732-27.4817882 18.07368772z" fill="#000111" fill-opacity=".5"/><path d="m162 81.3537118c0-45.0887765-36.264935-81.3537118-80.6462882-81.3537118v81.3537118z" fill="#05f"/><circle cx="81" cy="81" fill="#1b1b2a" r="51"/></g></g></svg>