<svg height="400" viewBox="0 0 340 200" width="680" xmlns="http://www.w3.org/2000/svg"><g fill="none" fill-rule="evenodd"><path d="m0 0h340v200h-340z" fill="#1b1b2a"/><g transform="translate(19 18)"><g fill="#ff5550" fill-opacity=".2"><path d="m0 0h31v163h-31z"/><path d="m80 0h31v163h-31z"/><path d="m160 0h31v163h-31z"/><path d="m240 0h31v163h-31z"/></g><path d="m0 102h31v61h-31z" fill="#ff5550"/><path d="m80 122h31v41h-31z" fill="#ff5550"/><path d="m160 141h31v22h-31z" fill="#ff5550"/><path d="m240 152h31v11h-31z" fill="#ff5550"/><g fill="#05f"><path d="m31 0h31v163h-31z" fill-opacity=".2"/><path d="m31 81h31v82h-31z"/><path d="m111 0h31v163h-31z" fill-opacity=".2"/><path d="m111 61h31v102h-31z"/><path d="m191 0h31v163h-31z" fill-opacity=".2"/><path d="m191 41h31v122h-31z"/><path d="m271 0h31v163h-31z" fill-opacity=".2"/><path d="m271 19h31v144h-31z"/></g></g></g></svg>
