<svg height="400" viewBox="0 0 340 200" width="680" xmlns="http://www.w3.org/2000/svg"><g fill="none" fill-rule="evenodd"><path d="m0 0h340v200h-340z" fill="#1b1b2a"/><path d="m20 21v-2h300v2zm0 20v-2h300v2zm0 20v-2h300v2zm0 20v-2h300v2zm0 20v-2h300v2zm0 20v-2h300v2zm0 20v-2h300v2zm0 20v-2h300v2zm0 20v-2h300v2z" fill="#fff" opacity=".08"/><g transform="translate(17 158)"><path d="m2 23 61-20h240v20z" fill="#005aff" fill-opacity=".15"/><g stroke="#005aff" stroke-width="4"><path d="m3.12883436 21.6326531 59.87116564-18.6326531h240"/><circle cx="3" cy="22" fill="#1b1b2a" r="5"/><circle cx="63" cy="3" fill="#1b1b2a" r="5"/><circle cx="123.184049" cy="3" fill="#1b1b2a" r="5"/><circle cx="183" cy="3" fill="#1b1b2a" r="5"/><circle cx="243" cy="3" fill="#1b1b2a" r="5"/><circle cx="303" cy="3" fill="#1b1b2a" r="5"/></g></g><g transform="translate(17 17)"><path d="m2 123 61-40 241-81v141l-241 .65725-61 19.34275z" fill="#ff5550" fill-opacity=".1"/><g stroke="#ff5550" stroke-width="4"><path d="m2.83856164 123.520642 60.06189576-40.6097774 240.5964756-80.56457485"/><circle cx="63" cy="83" fill="#1b1b2a" r="5"/><circle cx="3" cy="123" fill="#1b1b2a" r="5"/><circle cx="123" cy="63" fill="#1b1b2a" r="5"/><circle cx="182" cy="43" fill="#1b1b2a" r="5"/><circle cx="243" cy="22" fill="#1b1b2a" r="5"/><circle cx="303" cy="3" fill="#1b1b2a" r="5"/></g></g></g></svg>
